<?xml version="1.0" encoding="iso-8859-1"?>
<!-- Generator: Adobe Illustrator 19.0.0, SVG Export Plug-In . SVG Version: 6.00 Build 0)  -->
<svg version="1.1" id="Layer_1" xmlns="http://www.w3.org/2000/svg" xmlns:xlink="http://www.w3.org/1999/xlink" x="0px" y="0px"
	 viewBox="0 0 512 512" style="enable-background:new 0 0 512 512;" xml:space="preserve">
<circle style="fill:#F44336;" cx="256" cy="256" r="256"/>
<path style="fill:#FFFFFF;" d="M367.709,125.989c20.573,0,37.236,16.663,37.236,37.236v167.564
	c0,20.573-16.663,37.236-37.236,37.236H144.291c-20.573,0-37.236-16.663-37.236-37.236V163.226
	c0-20.573,16.663-37.236,37.236-37.236H367.709z"/>
<g>
	<path style="fill:#787878;" d="M137.816,219.471c0-8.988,3.077-14.033,8.993-14.033c5.911,0,8.983,5.046,8.983,14.033
		c0,9.025-3.072,14.071-8.983,14.071C140.898,233.546,137.816,228.501,137.816,219.471z M152.05,219.471
		c0-7.922-1.932-11.152-5.241-11.152c-3.272,0-5.246,3.23-5.246,11.152c0,7.964,1.974,11.194,5.246,11.194
		C150.118,230.67,152.05,227.435,152.05,219.471z M146.809,216.911c1.494,0,2.602,1.145,2.602,2.565
		c0,1.457-1.103,2.602-2.602,2.602c-1.457,0-2.565-1.14-2.565-2.602C144.244,218.056,145.352,216.911,146.809,216.911z"/>
	<path style="fill:#787878;" d="M170.356,209.897l-6.498,3.942l-1.736-2.523l8.671-5.399h3.193v24.241h5.562v2.918H163.7v-2.918
		h6.656V209.897z"/>
	<path style="fill:#787878;" d="M185.158,219.471c0-8.988,3.077-14.033,8.988-14.033c5.911,0,8.988,5.046,8.988,14.033
		c0,9.025-3.077,14.071-8.988,14.071C188.234,233.542,185.158,228.501,185.158,219.471z M199.391,219.471
		c0-7.922-1.936-11.152-5.246-11.152c-3.272,0-5.246,3.23-5.246,11.152c0,7.964,1.974,11.194,5.246,11.194
		C197.455,230.67,199.391,227.435,199.391,219.471z M194.146,216.911c1.499,0,2.602,1.145,2.602,2.565
		c0,1.457-1.098,2.602-2.602,2.602c-1.457,0-2.565-1.14-2.565-2.602C191.581,218.056,192.684,216.911,194.146,216.911z"/>
	<path style="fill:#787878;" d="M217.698,209.897l-6.507,3.942l-1.731-2.523l8.667-5.399h3.198v24.241h5.558v2.918h-15.844v-2.918
		h6.665v-20.261H217.698z"/>
	<path style="fill:#787878;" d="M241.361,209.897l-6.498,3.942l-1.736-2.523l8.671-5.399h3.193v24.241h5.558v2.918h-15.844v-2.918
		h6.661v-20.261H241.361z"/>
	<path style="fill:#787878;" d="M256.163,219.471c0-8.988,3.077-14.033,8.993-14.033c5.911,0,8.988,5.046,8.988,14.033
		c0,9.025-3.077,14.071-8.988,14.071C259.24,233.546,256.163,228.501,256.163,219.471z M270.396,219.471
		c0-7.922-1.932-11.152-5.241-11.152c-3.272,0-5.246,3.23-5.246,11.152c0,7.964,1.974,11.194,5.246,11.194
		C268.465,230.67,270.396,227.435,270.396,219.471z M265.155,216.911c1.494,0,2.602,1.145,2.602,2.565
		c0,1.457-1.103,2.602-2.602,2.602c-1.457,0-2.565-1.14-2.565-2.602C262.591,218.056,263.694,216.911,265.155,216.911z"/>
	<path style="fill:#787878;" d="M288.703,209.897l-6.502,3.942l-1.736-2.523l8.671-5.399h3.193v24.241h5.562v2.918h-15.844v-2.918
		h6.661v-20.261H288.703z"/>
	<path style="fill:#787878;" d="M303.504,219.471c0-8.988,3.077-14.033,8.988-14.033c5.916,0,8.993,5.046,8.993,14.033
		c0,9.025-3.077,14.071-8.993,14.071C306.581,233.546,303.504,228.501,303.504,219.471z M317.738,219.471
		c0-7.922-1.932-11.152-5.246-11.152c-3.272,0-5.241,3.23-5.241,11.152c0,7.964,1.969,11.194,5.241,11.194
		C315.806,230.67,317.738,227.435,317.738,219.471z M312.492,216.911c1.499,0,2.602,1.145,2.602,2.565
		c0,1.457-1.098,2.602-2.602,2.602c-1.457,0-2.56-1.14-2.56-2.602C309.932,218.056,311.035,216.911,312.492,216.911z"/>
	<path style="fill:#787878;" d="M336.044,209.897l-6.502,3.938l-1.736-2.523l8.671-5.399h3.193v24.241h5.558v2.918h-15.844v-2.918
		h6.665v-20.257H336.044z"/>
	<path style="fill:#787878;" d="M137.816,266.808c0-8.983,3.077-14.029,8.993-14.029c5.911,0,8.983,5.046,8.983,14.029
		c0,9.025-3.072,14.071-8.983,14.071C140.898,280.883,137.816,275.838,137.816,266.808z M152.05,266.808
		c0-7.917-1.932-11.152-5.241-11.152c-3.272,0-5.246,3.23-5.246,11.152c0,7.964,1.974,11.194,5.246,11.194
		C150.118,278.007,152.05,274.772,152.05,266.808z M146.809,264.248c1.494,0,2.602,1.14,2.602,2.56c0,1.462-1.103,2.607-2.602,2.607
		c-1.457,0-2.565-1.14-2.565-2.607C144.244,265.393,145.352,264.248,146.809,264.248z"/>
	<path style="fill:#787878;" d="M170.356,257.238l-6.498,3.938l-1.741-2.523l8.671-5.399h3.193v24.241h5.562v2.914H163.7v-2.914
		h6.656V257.238z"/>
	<path style="fill:#787878;" d="M185.158,266.808c0-8.983,3.077-14.029,8.988-14.029c5.911,0,8.988,5.046,8.988,14.029
		c0,9.025-3.077,14.071-8.988,14.071C188.234,280.879,185.158,275.838,185.158,266.808z M199.391,266.808
		c0-7.917-1.936-11.152-5.246-11.152c-3.272,0-5.246,3.23-5.246,11.152c0,7.964,1.974,11.194,5.246,11.194
		C197.455,278.007,199.391,274.772,199.391,266.808z M194.146,264.248c1.499,0,2.602,1.14,2.602,2.56
		c0,1.462-1.098,2.607-2.602,2.607c-1.457,0-2.565-1.14-2.565-2.607C191.581,265.393,192.684,264.248,194.146,264.248z"/>
	<path style="fill:#787878;" d="M217.698,257.238l-6.507,3.938l-1.731-2.518l8.667-5.399h3.198v24.241h5.558v2.914h-15.844v-2.914
		h6.665v-20.261H217.698z"/>
	<path style="fill:#787878;" d="M232.499,266.808c0-8.983,3.072-14.029,8.983-14.029c5.916,0,8.993,5.046,8.993,14.029
		c0,9.025-3.077,14.071-8.993,14.071C235.571,280.883,232.499,275.838,232.499,266.808z M246.728,266.808
		c0-7.917-1.932-11.152-5.246-11.152c-3.267,0-5.241,3.23-5.241,11.152c0,7.964,1.974,11.194,5.241,11.194
		C244.796,278.007,246.728,274.772,246.728,266.808z M241.482,264.248c1.499,0,2.607,1.14,2.607,2.56
		c0,1.462-1.103,2.607-2.607,2.607c-1.457,0-2.56-1.14-2.56-2.607C238.922,265.393,240.026,264.248,241.482,264.248z"/>
	<path style="fill:#787878;" d="M256.163,266.808c0-8.983,3.077-14.029,8.993-14.029c5.911,0,8.988,5.046,8.988,14.029
		c0,9.025-3.077,14.071-8.988,14.071C259.24,280.883,256.163,275.838,256.163,266.808z M270.396,266.808
		c0-7.917-1.932-11.152-5.241-11.152c-3.272,0-5.246,3.23-5.246,11.152c0,7.964,1.974,11.194,5.246,11.194
		C268.465,278.007,270.396,274.772,270.396,266.808z M265.155,264.248c1.494,0,2.602,1.14,2.602,2.56
		c0,1.462-1.103,2.607-2.602,2.607c-1.457,0-2.565-1.14-2.565-2.607C262.591,265.393,263.694,264.248,265.155,264.248z"/>
	<path style="fill:#787878;" d="M288.703,257.238l-6.502,3.938l-1.736-2.518l8.671-5.399h3.193v24.241h5.562v2.914h-15.844v-2.914
		h6.661v-20.261H288.703z"/>
	<path style="fill:#787878;" d="M303.504,266.808c0-8.983,3.077-14.029,8.988-14.029c5.916,0,8.993,5.046,8.993,14.029
		c0,9.025-3.077,14.071-8.993,14.071C306.581,280.883,303.504,275.838,303.504,266.808z M317.738,266.808
		c0-7.917-1.932-11.152-5.246-11.152c-3.272,0-5.241,3.23-5.241,11.152c0,7.964,1.969,11.194,5.241,11.194
		C315.806,278.007,317.738,274.772,317.738,266.808z M312.492,264.248c1.499,0,2.602,1.14,2.602,2.56
		c0,1.462-1.098,2.607-2.602,2.607c-1.457,0-2.56-1.14-2.56-2.607C309.932,265.393,311.035,264.248,312.492,264.248z"/>
	<path style="fill:#787878;" d="M146.693,304.575l-6.507,3.947l-1.731-2.523l8.671-5.404h3.198v24.246h5.553v2.918h-15.844v-2.918
		h6.665v-20.266H146.693z"/>
	<path style="fill:#787878;" d="M161.489,314.154c0-8.993,3.072-14.038,8.983-14.038c5.916,0,8.993,5.046,8.993,14.038
		c0,9.025-3.072,14.071-8.993,14.071C164.561,328.229,161.489,323.184,161.489,314.154z M175.718,314.154
		c0-7.922-1.927-11.152-5.246-11.152c-3.267,0-5.236,3.23-5.236,11.152c0,7.964,1.969,11.19,5.236,11.19
		C173.791,325.343,175.718,322.118,175.718,314.154z M170.473,311.589c1.499,0,2.607,1.145,2.607,2.565
		c0,1.457-1.103,2.602-2.607,2.602c-1.457,0-2.56-1.14-2.56-2.602C167.913,312.734,169.021,311.589,170.473,311.589z"/>
	<path style="fill:#787878;" d="M194.029,304.575l-6.502,3.947l-1.731-2.523l8.671-5.404h3.193v24.246h5.553v2.918h-15.844v-2.918
		h6.665v-20.266H194.029z"/>
	<path style="fill:#787878;" d="M208.826,314.154c0-8.993,3.072-14.038,8.988-14.038c5.916,0,8.988,5.046,8.988,14.038
		c0,9.025-3.072,14.071-8.988,14.071C211.898,328.225,208.826,323.184,208.826,314.154z M223.055,314.154
		c0-7.922-1.927-11.152-5.241-11.152c-3.267,0-5.241,3.23-5.241,11.152c0,7.964,1.974,11.19,5.241,11.19
		C221.128,325.343,223.055,322.118,223.055,314.154z M217.814,311.589c1.494,0,2.607,1.145,2.607,2.565
		c0,1.457-1.108,2.602-2.607,2.602c-1.457,0-2.56-1.14-2.56-2.602C215.254,312.734,216.353,311.589,217.814,311.589z"/>
	<path style="fill:#787878;" d="M232.499,314.154c0-8.993,3.072-14.038,8.983-14.038c5.916,0,8.993,5.046,8.993,14.038
		c0,9.025-3.077,14.071-8.993,14.071C235.571,328.229,232.499,323.184,232.499,314.154z M246.728,314.154
		c0-7.922-1.932-11.152-5.246-11.152c-3.267,0-5.241,3.23-5.241,11.152c0,7.964,1.974,11.19,5.241,11.19
		C244.796,325.343,246.728,322.118,246.728,314.154z M241.482,311.589c1.499,0,2.607,1.145,2.607,2.565
		c0,1.457-1.103,2.602-2.607,2.602c-1.457,0-2.56-1.14-2.56-2.602C238.922,312.734,240.026,311.589,241.482,311.589z"/>
	<path style="fill:#787878;" d="M265.034,304.575l-6.502,3.947l-1.732-2.523l8.667-5.404h3.198v24.246h5.553v2.918h-15.844v-2.918
		h6.665v-20.266H265.034z"/>
</g>
<path style="fill:#212121;" d="M367.709,125.673H144.291c-20.564,0-37.236,16.673-37.236,37.236v18.618h297.891v-18.618
	C404.945,142.345,388.273,125.673,367.709,125.673z"/>
<circle style="fill:#EF5350;" cx="148.945" cy="153.926" r="9.309"/>
<circle style="fill:#FBC02D;" cx="186.182" cy="153.926" r="9.309"/>
<circle style="fill:#26A69A;" cx="223.418" cy="153.926" r="9.309"/>
<path style="fill:#733725;" d="M277.755,349.189l-50.264,50.26c-6.256,6.26-16.389,6.26-22.644,0c-6.265-6.26-6.265-16.393,0-22.649
	l50.367-50.371C260.79,335.714,268.516,343.529,277.755,349.189z"/>
<path style="fill:#8F4D38;" d="M264.955,338.972l-60.281,60.276c-6.093-6.256-6.032-16.249,0.14-22.449l50.399-50.399
	C257.96,330.957,261.246,335.178,264.955,338.972z"/>
<path style="fill:#FFFFFF;" d="M313.4,358.865c-37.213,0-67.491-30.278-67.491-67.491s30.278-67.491,67.491-67.491
	s67.491,30.278,67.491,67.491S350.613,358.865,313.4,358.865z"/>
<path style="fill:#CFD3D4;" d="M313.4,223.828c37.292,0,67.547,30.255,67.547,67.547s-30.255,67.547-67.547,67.547
	c-37.427,0-67.547-30.543-67.547-67.547C245.853,254.082,276.108,223.828,313.4,223.828 M313.4,214.575
	c-42.347,0-76.8,34.453-76.8,76.8s34.453,76.8,76.8,76.8s76.8-34.453,76.8-76.8S355.747,214.575,313.4,214.575L313.4,214.575z"/>
<circle style="fill:#90CAF9;" cx="313.391" cy="291.375" r="53.802"/>
<path style="fill:#BBDEFB;" d="M313.4,237.577c-29.71,0-53.802,24.087-53.802,53.797c0,14.699,5.911,28.011,15.467,37.72
	l76.051-76.051C341.411,243.489,328.099,237.577,313.4,237.577z"/>
<g>
</g>
<g>
</g>
<g>
</g>
<g>
</g>
<g>
</g>
<g>
</g>
<g>
</g>
<g>
</g>
<g>
</g>
<g>
</g>
<g>
</g>
<g>
</g>
<g>
</g>
<g>
</g>
<g>
</g>
</svg>
