<?xml version="1.0" encoding="iso-8859-1"?>
<!-- Generator: Adobe Illustrator 19.0.0, SVG Export Plug-In . SVG Version: 6.00 Build 0)  -->
<svg version="1.1" id="Layer_1" xmlns="http://www.w3.org/2000/svg" xmlns:xlink="http://www.w3.org/1999/xlink" x="0px" y="0px"
	 viewBox="0 0 512 512" style="enable-background:new 0 0 512 512;" xml:space="preserve">
<circle style="fill:#FFC400;" cx="256" cy="256" r="256"/>
<circle style="fill:#FFFFFF;" cx="256" cy="153.6" r="46.545"/>
<path style="fill:#212121;" d="M358.4,358.4c0,5.139-4.171,9.309-9.309,9.309H162.909c-5.139,0-9.309-4.171-9.309-9.309V228.073
	c0-5.139,4.17-9.309,9.309-9.309h186.182c5.139,0,9.309,4.17,9.309,9.309V358.4z"/>
<rect x="228.073" y="367.709" style="fill:#E2E4E5;" width="55.855" height="23.273"/>
<path style="fill:#FFFFFF;" d="M358.4,358.4v-27.927H153.6V358.4c0,5.139,4.17,9.309,9.309,9.309h186.182
	C354.229,367.709,358.4,363.539,358.4,358.4z"/>
<circle style="fill:#969696;" cx="256" cy="349.091" r="9.309"/>
<path style="fill:#5B5C5F;" d="M153.6,228.073v102.4h63.12l111.709-111.709h-165.52C157.77,218.764,153.6,222.934,153.6,228.073z"/>
<path style="fill:#42A5F5;" d="M280.208,156.956c-1.578-0.545-13.452-3.947-13.452-5.609c3.933-3.156,6.456-7.997,6.456-13.428
	c0-9.509-7.703-17.217-17.213-17.217c-9.509,0-17.212,7.708-17.212,17.217c0,5.432,2.523,10.273,6.456,13.428
	c0,1.662-11.874,5.064-13.452,5.609c-2.299,1.317-3.719,3.761-3.719,6.409l2.15,13.829h51.554l2.15-13.829
	C283.927,160.717,282.508,158.273,280.208,156.956z"/>
<circle style="fill:#FFFFFF;" cx="153.6" cy="181.527" r="46.545"/>
<path style="fill:#42A5F5;" d="M177.808,184.883c-1.578-0.545-13.452-3.947-13.452-5.609c3.933-3.156,6.456-7.997,6.456-13.428
	c0-9.509-7.703-17.217-17.213-17.217c-9.509,0-17.213,7.708-17.213,17.217c0,5.432,2.523,10.273,6.456,13.428
	c0,1.662-11.874,5.064-13.452,5.609c-2.299,1.317-3.719,3.761-3.719,6.409l2.15,13.829h51.554l2.15-13.829
	C181.527,188.644,180.108,186.2,177.808,184.883z"/>
<circle style="fill:#FFFFFF;" cx="358.4" cy="181.527" r="46.545"/>
<path style="fill:#42A5F5;" d="M382.608,184.883c-1.517-0.521-13.452-4.124-13.452-5.609c3.933-3.156,6.456-7.997,6.456-13.428
	c0-9.509-7.703-17.217-17.212-17.217c-9.509,0-17.212,7.708-17.212,17.217c0,5.432,2.523,10.273,6.456,13.428
	c0,1.662-11.874,5.064-13.452,5.609c-2.299,1.317-3.719,3.761-3.719,6.409l2.15,13.829h51.554l2.15-13.829
	C386.327,188.644,384.908,186.2,382.608,184.883z"/>
<g>
	<circle style="fill:#FFFFFF;" cx="256" cy="218.764" r="9.309"/>
	<circle style="fill:#FFFFFF;" cx="256" cy="256" r="9.309"/>
	<circle style="fill:#FFFFFF;" cx="256" cy="293.236" r="9.309"/>
	<circle style="fill:#FFFFFF;" cx="288.582" cy="260.655" r="9.309"/>
	<circle style="fill:#FFFFFF;" cx="316.509" cy="232.727" r="9.309"/>
	<circle style="fill:#FFFFFF;" cx="223.418" cy="260.655" r="9.309"/>
	<circle style="fill:#FFFFFF;" cx="195.491" cy="232.727" r="9.309"/>
</g>
<path style="fill:#F0F0F0;" d="M307.2,397.964c0,3.854-3.128,6.982-6.982,6.982h-88.436c-3.854,0-6.982-3.128-6.982-6.982
	s3.128-6.982,6.982-6.982h88.436C304.072,390.982,307.2,394.11,307.2,397.964z"/>
<g>
</g>
<g>
</g>
<g>
</g>
<g>
</g>
<g>
</g>
<g>
</g>
<g>
</g>
<g>
</g>
<g>
</g>
<g>
</g>
<g>
</g>
<g>
</g>
<g>
</g>
<g>
</g>
<g>
</g>
</svg>
