<?xml version="1.0" encoding="iso-8859-1"?>
<!-- Generator: Adobe Illustrator 19.0.0, SVG Export Plug-In . SVG Version: 6.00 Build 0)  -->
<svg version="1.1" id="Layer_1" xmlns="http://www.w3.org/2000/svg" xmlns:xlink="http://www.w3.org/1999/xlink" x="0px" y="0px"
	 viewBox="0 0 512 512" style="enable-background:new 0 0 512 512;" xml:space="preserve">
<circle style="fill:#0091EA;" cx="256" cy="256" r="256"/>
<path style="fill:#212121;" d="M404.945,343.17c0,7.475-6.065,13.54-13.54,13.54H120.595c-7.475,0-13.54-6.065-13.54-13.54V153.6
	c0-7.475,6.065-13.54,13.54-13.54h270.811c7.475,0,13.54,6.065,13.54,13.54V343.17z"/>
<rect x="215.366" y="356.724" style="fill:#E2E4E5;" width="81.245" height="34.695"/>
<path style="fill:#F0F0F0;" d="M323.7,398.178c0,3.738-3.03,6.768-6.768,6.768H195.067c-3.742,0-6.768-3.03-6.768-6.768
	c0-3.742,3.025-6.772,6.768-6.772h121.865C320.67,391.405,323.7,394.435,323.7,398.178z"/>
<path style="fill:#FFFFFF;" d="M404.945,343.17v-40.625H107.055v40.625c0,7.475,6.065,13.54,13.54,13.54h270.811
	C398.881,356.71,404.945,350.646,404.945,343.17z"/>
<path style="fill:#CFD3D4;" d="M256,348.667c-10.031,0-18.195-8.159-18.195-18.195c0-10.031,8.164-18.19,18.195-18.19
	s18.195,8.159,18.195,18.19C274.195,340.508,266.031,348.667,256,348.667z M256,321.592c-4.901,0-8.886,3.98-8.886,8.881
	s3.984,8.885,8.886,8.885c4.901,0,8.886-3.984,8.886-8.885S260.901,321.592,256,321.592z"/>
<path style="fill:#5B5C5F;" d="M107.055,153.176v148.945h91.806l162.486-162.486H120.595
	C113.119,139.636,107.055,145.701,107.055,153.176z"/>
<g>
	<path style="fill:#FFFFFF;" d="M141.563,174.49c0-5.139,1.755-8.024,5.139-8.024c3.379,0,5.139,2.886,5.139,8.024
		c0,5.162-1.764,8.048-5.139,8.048C143.318,182.542,141.563,179.656,141.563,174.49z M149.699,174.49
		c0-4.534-1.098-6.377-2.998-6.377c-1.871,0-3.002,1.843-3.002,6.377c0,4.557,1.126,6.405,3.002,6.405
		C148.601,180.894,149.699,179.046,149.699,174.49z M146.707,173.028c0.861,0,1.485,0.656,1.485,1.462
		c0,0.838-0.628,1.489-1.485,1.489c-0.833,0-1.466-0.656-1.466-1.489C145.236,173.68,145.873,173.028,146.707,173.028z"/>
	<path style="fill:#FFFFFF;" d="M160.154,169.016l-3.719,2.257l-0.991-1.448l4.952-3.091h1.829v13.866h3.184v1.666h-9.062v-1.666
		h3.807V169.016z"/>
	<path style="fill:#FFFFFF;" d="M191.12,168.834l0.991,1.555l-7.889,4.822l7.889,4.85l-1.08,1.508l-8.592-5.362v-2.011
		L191.12,168.834z"/>
	<path style="fill:#FFFFFF;" d="M203.599,182.272v-7.28h-5.637v7.28h-2.146v-15.537h2.146v6.498h5.637v-6.498h2.136v15.537H203.599z
		"/>
	<path style="fill:#FFFFFF;" d="M215.338,168.541v13.731h-2.146v-13.731h-4.799v-1.806h11.813l-0.223,1.806H215.338z"/>
	<path style="fill:#FFFFFF;" d="M231.899,182.272l-0.456-7.959c-0.107-2.188-0.107-4.715-0.093-5.208h-0.065l-2.458,10.394h-2.048
		l-2.574-10.394h-0.093c0,0.521,0.047,3.202-0.047,5.208l-0.382,7.959h-1.983l0.875-15.537h2.839l2.392,10.375h0.093l2.271-10.375
		h2.863l0.88,15.537H231.899z"/>
	<path style="fill:#FFFFFF;" d="M237.526,182.272v-15.537h2.141v13.666h7.061l-0.251,1.871H237.526z"/>
	<path style="fill:#FFFFFF;" d="M259.7,174.201v2.011l-8.592,5.362l-1.08-1.508l7.889-4.85l-7.889-4.822l0.996-1.555L259.7,174.201z
		"/>
	<path style="fill:#FFFFFF;" d="M141.563,201.533c0-5.139,1.755-8.029,5.139-8.029c3.379,0,5.139,2.886,5.139,8.029
		c0,5.162-1.764,8.048-5.139,8.048C143.318,209.58,141.563,206.694,141.563,201.533z M149.699,201.533
		c0-4.534-1.098-6.381-2.998-6.381c-1.871,0-3.002,1.848-3.002,6.381c0,4.557,1.126,6.405,3.002,6.405
		C148.601,207.937,149.699,206.085,149.699,201.533z M146.707,200.066c0.861,0,1.485,0.652,1.485,1.462
		c0,0.833-0.628,1.485-1.485,1.485c-0.833,0-1.466-0.656-1.466-1.485C145.236,200.718,145.873,200.066,146.707,200.066z"/>
	<path style="fill:#FFFFFF;" d="M157.766,207.574h7.061l-0.251,1.736h-9.244v-1.648c5.371-5.32,7.019-7.466,7.019-9.802
		c0-1.671-1.131-2.62-2.639-2.62c-1.285,0-2.164,0.475-3.114,1.666l-1.443-1.015c1.219-1.508,2.751-2.392,4.669-2.392
		c2.835,0,4.664,1.806,4.664,4.287C164.482,200.495,162.346,203.199,157.766,207.574z"/>
	<path style="fill:#FFFFFF;" d="M191.12,195.873l0.991,1.555l-7.889,4.827l7.889,4.845l-1.08,1.508l-8.592-5.362v-2.011
		L191.12,195.873z"/>
	<path style="fill:#FFFFFF;" d="M200.374,209.31h-4.282v-15.532h3.947c2.774,0,5.544,0.875,5.544,3.924
		c0,1.983-1.401,3.016-2.704,3.314v0.093c1.555,0.293,3.384,1.196,3.384,3.766C206.257,208.272,203.283,209.31,200.374,209.31z
		 M200.42,195.463h-2.188v4.873h2.369c1.801,0,2.797-0.745,2.797-2.504C203.394,196.119,202.263,195.463,200.42,195.463z
		 M200.755,202.049h-2.523v5.525h2.43c1.513,0,3.342-0.428,3.342-2.658C204.004,202.636,202.538,202.049,200.755,202.049z"/>
	<path style="fill:#FFFFFF;" d="M214.3,209.58c-3.807,0-5.772-3.184-5.772-8.006c0-4.738,1.964-8.071,5.772-8.071
		s5.772,3.221,5.772,8.048C220.072,206.289,218.107,209.58,214.3,209.58z M214.3,195.263c-2.527,0-3.542,2.211-3.542,6.312
		c0,4.101,1.08,6.246,3.542,6.246c2.527,0,3.537-2.169,3.537-6.27S216.827,195.263,214.3,195.263z"/>
	<path style="fill:#FFFFFF;" d="M226.49,209.31h-3.635v-15.532h3.384c3.677,0,7.326,1.243,7.326,7.685
		C233.565,207.96,229.781,209.31,226.49,209.31z M226.714,195.491h-1.713v12.125h1.736c2.211,0,4.557-1.126,4.557-6.153
		C231.289,196.184,228.831,195.491,226.714,195.491z"/>
	<path style="fill:#FFFFFF;" d="M242.418,203.338v5.972h-2.164v-5.953l-5.232-9.584h2.369l3.97,7.596h0.07l3.989-7.596h2.23
		L242.418,203.338z"/>
	<path style="fill:#FFFFFF;" d="M259.7,201.235v2.011l-8.592,5.362l-1.08-1.508l7.889-4.845l-7.889-4.827l0.996-1.555L259.7,201.235
		z"/>
	<path style="fill:#FFFFFF;" d="M141.563,228.566c0-5.139,1.755-8.029,5.139-8.029c3.379,0,5.139,2.886,5.139,8.029
		c0,5.162-1.764,8.048-5.139,8.048C143.318,236.618,141.563,233.733,141.563,228.566z M149.699,228.566
		c0-4.534-1.098-6.381-2.998-6.381c-1.871,0-3.002,1.848-3.002,6.381c0,4.557,1.126,6.405,3.002,6.405
		C148.601,234.971,149.699,233.123,149.699,228.566z M146.707,227.105c0.861,0,1.485,0.656,1.485,1.462
		c0,0.838-0.628,1.489-1.485,1.489c-0.833,0-1.466-0.656-1.466-1.489C145.236,227.761,145.873,227.105,146.707,227.105z"/>
	<path style="fill:#FFFFFF;" d="M159.614,236.618c-1.806,0-3.649-0.656-4.85-2.095l1.354-1.126c0.88,1.038,2.164,1.531,3.426,1.531
		c2.099,0,3.365-1.173,3.365-3.063c0-2.164-1.336-2.886-3.16-2.886h-1.196l0.247-1.606h0.815c1.485,0,2.886-0.833,2.886-2.634
		c0-1.648-1.261-2.551-2.863-2.551c-1.327,0-2.253,0.479-3.268,1.424l-1.131-1.238c1.336-1.261,2.863-1.834,4.515-1.834
		c2.979,0,4.822,1.783,4.822,3.901c0,1.894-1.401,3.295-2.956,3.589v0.088c1.718,0.112,3.454,1.401,3.454,3.766
		C165.073,234.57,162.881,236.618,159.614,236.618z"/>
	<path style="fill:#FFFFFF;" d="M191.12,222.911l0.991,1.555l-7.889,4.827l7.889,4.845l-1.08,1.513l-8.592-5.367v-2.006
		L191.12,222.911z"/>
	<path style="fill:#FFFFFF;" d="M203.599,236.348v-7.284h-5.637v7.284h-2.146v-15.537h2.146v6.498h5.637v-6.498h2.136v15.537
		H203.599z"/>
	<path style="fill:#FFFFFF;" d="M212.201,222.529v5.073h5.725v1.713h-5.725v5.339h7.014v1.694h-9.155v-15.537h8.974l-0.247,1.713
		h-6.586V222.529z"/>
	<path style="fill:#FFFFFF;" d="M230.744,232.448h-5.972l-1.192,3.901h-2.146l5.027-15.537h2.709l5.027,15.537h-2.253
		L230.744,232.448z M225.289,230.707h4.938l-2.411-7.955h-0.093L225.289,230.707z"/>
	<path style="fill:#FFFFFF;" d="M240.007,236.348h-3.635v-15.537h3.389c3.677,0,7.326,1.243,7.326,7.685
		C247.087,234.994,243.298,236.348,240.007,236.348z M240.23,222.529h-1.713v12.125h1.736c2.211,0,4.557-1.126,4.557-6.153
		C244.81,223.227,242.348,222.529,240.23,222.529z"/>
	<path style="fill:#FFFFFF;" d="M252.76,222.529v5.073h5.72v1.713h-5.72v5.339h7.014v1.694h-9.156v-15.537h8.974l-0.247,1.713
		h-6.586V222.529z"/>
	<path style="fill:#FFFFFF;" d="M270.061,229.497l4.557,6.851h-2.546l-4.152-6.586h-1.987v6.586h-2.136v-15.537h4.077
		c3.877,0,5.911,1.485,5.911,4.394C273.785,227.533,272.165,228.952,270.061,229.497z M268.083,222.483h-2.146v5.637h2.169
		c2.164,0,3.402-0.81,3.402-2.909C271.509,223.274,270.401,222.483,268.083,222.483z"/>
	<path style="fill:#FFFFFF;" d="M286.739,228.278v2.006l-8.592,5.367l-1.08-1.513l7.889-4.845l-7.889-4.827l0.991-1.555
		L286.739,228.278z"/>
	<path style="fill:#FFFFFF;" d="M141.563,255.609c0-5.139,1.755-8.029,5.139-8.029c3.379,0,5.139,2.886,5.139,8.029
		c0,5.162-1.764,8.048-5.139,8.048C143.318,263.661,141.563,260.771,141.563,255.609z M149.699,255.609
		c0-4.534-1.098-6.381-2.998-6.381c-1.871,0-3.002,1.848-3.002,6.381c0,4.557,1.126,6.405,3.002,6.405
		C148.601,262.014,149.699,260.166,149.699,255.609z M146.707,254.147c0.861,0,1.485,0.656,1.485,1.462
		c0,0.838-0.628,1.485-1.485,1.485c-0.833,0-1.466-0.652-1.466-1.485C145.236,254.799,145.873,254.147,146.707,254.147z"/>
	<path style="fill:#FFFFFF;" d="M163.384,259.668v3.719h-2.011v-3.719h-6.358v-1.466l4.557-10.617l1.736,0.721l-4.105,9.719h4.17
		l0.2-4.059h1.811v4.059h1.96v1.648h-1.96V259.668z"/>
	<path style="fill:#FFFFFF;" d="M191.12,249.949l0.991,1.555l-7.889,4.822l7.889,4.85l-1.08,1.513l-8.592-5.367v-2.011
		L191.12,249.949z"/>
	<path style="fill:#FFFFFF;" d="M196.808,265.733l-1.662-0.745l9.626-19.861l1.648,0.787L196.808,265.733z"/>
	<path style="fill:#FFFFFF;" d="M217.116,263.387v-7.275h-5.637v7.275h-2.146v-15.532h2.146v6.493h5.637v-6.493h2.141v15.532
		H217.116L217.116,263.387z"/>
	<path style="fill:#FFFFFF;" d="M225.718,249.567v5.073h5.725v1.713h-5.725v5.339h7.014v1.69h-9.151v-15.528h8.974l-0.251,1.713
		H225.718z"/>
	<path style="fill:#FFFFFF;" d="M244.266,259.486h-5.976l-1.192,3.901h-2.146l5.027-15.532h2.709l5.027,15.532h-2.253
		L244.266,259.486z M238.811,257.755h4.938l-2.411-7.964h-0.093L238.811,257.755z"/>
	<path style="fill:#FFFFFF;" d="M253.528,263.387h-3.631v-15.532h3.379c3.682,0,7.331,1.243,7.331,7.685
		C260.603,262.037,256.819,263.387,253.528,263.387z M253.752,249.567h-1.713v12.125h1.736c2.211,0,4.557-1.126,4.557-6.153
		C258.327,250.266,255.874,249.567,253.752,249.567z"/>
	<path style="fill:#FFFFFF;" d="M266.277,249.567v5.073h5.725v1.713h-5.725v5.339h7.014v1.69h-9.155v-15.528h8.974l-0.247,1.713
		H266.277z"/>
	<path style="fill:#FFFFFF;" d="M283.583,256.531l4.557,6.856h-2.546l-4.152-6.582h-1.983v6.582h-2.141v-15.532h4.082
		c3.873,0,5.907,1.485,5.907,4.394C287.306,254.571,285.682,255.991,283.583,256.531z M281.6,249.521h-2.141v5.637h2.164
		c2.164,0,3.402-0.815,3.402-2.909C285.026,250.307,283.923,249.521,281.6,249.521z"/>
	<path style="fill:#FFFFFF;" d="M300.26,255.316v2.011l-8.592,5.367l-1.08-1.513l7.889-4.85l-7.889-4.822l0.991-1.555
		L300.26,255.316z"/>
</g>
<g>
</g>
<g>
</g>
<g>
</g>
<g>
</g>
<g>
</g>
<g>
</g>
<g>
</g>
<g>
</g>
<g>
</g>
<g>
</g>
<g>
</g>
<g>
</g>
<g>
</g>
<g>
</g>
<g>
</g>
</svg>
