<?xml version="1.0" encoding="iso-8859-1"?>
<!-- Generator: Adobe Illustrator 19.0.0, SVG Export Plug-In . SVG Version: 6.00 Build 0)  -->
<svg version="1.1" id="Layer_1" xmlns="http://www.w3.org/2000/svg" xmlns:xlink="http://www.w3.org/1999/xlink" x="0px" y="0px"
	 viewBox="0 0 512 512" style="enable-background:new 0 0 512 512;" xml:space="preserve">
<circle style="fill:#0F7986;" cx="256" cy="256" r="256"/>
<path style="fill:#21D0C3;" d="M255.103,269.162l17.445-3.811l-2.831-28.817l-17.851-0.341c-1.667-6.17-3.898-12.086-6.637-17.689
	l13.191-12.014l-16.858-23.542l-15.639,8.632c-4.475-4.442-9.362-8.451-14.591-11.981l5.422-17.016l-26.369-11.958l-9.214,15.279
	l0.003-0.005c-6.031-1.598-12.267-2.637-18.646-3.071l-3.811-17.445l-28.817,2.831l-0.341,17.851
	c-6.17,1.673-12.086,3.903-17.689,6.642l-12.014-13.191l-23.542,16.858l8.632,15.639c-4.442,4.475-8.451,9.362-11.981,14.591
	l-17.02-5.422l-11.958,26.373l15.279,9.214c-1.598,6.027-2.637,12.263-3.071,18.642l-17.445,3.811l2.831,28.817l17.851,0.341
	c1.667,6.17,3.898,12.087,6.637,17.689l-13.191,12.013l16.858,23.542l15.639-8.632c4.475,4.443,9.362,8.458,14.591,11.982
	l-5.422,17.02l26.369,11.958l9.214-15.279c6.027,1.598,12.263,2.637,18.642,3.071l3.811,17.445l28.817-2.831l0.341-17.851
	c6.17-1.673,12.086-3.903,17.689-6.642l12.014,13.191l23.542-16.858l-8.632-15.639c4.443-4.475,8.453-9.362,11.982-14.59
	l17.02,5.422l11.958-26.374l-15.279-9.214C253.63,281.777,254.669,275.541,255.103,269.162z M159.445,300.885
	c-21.315,2.097-40.294-13.487-42.386-34.802s13.492-40.294,34.802-42.386v-0.005c21.315-2.092,40.294,13.492,42.386,34.807
	C196.339,279.814,180.755,298.793,159.445,300.885z"/>
<path style="fill:#15BDB2;" d="M209.624,256.983c-2.928-29.805-29.463-51.591-59.268-48.663
	c-29.806,2.928-51.596,29.463-48.668,59.268s29.463,51.591,59.268,48.663S212.552,286.788,209.624,256.983z M159.45,300.885
	c-21.315,2.097-40.294-13.487-42.386-34.802s13.492-40.294,34.802-42.386v-0.005c21.315-2.092,40.294,13.492,42.386,34.807
	S180.76,298.793,159.45,300.885z"/>
<path style="fill:#21D0C3;" d="M409.546,401.247l6.794-1.487l-1.104-11.224l-6.955-0.134c-0.652-2.406-1.52-4.712-2.587-6.892
	l5.141-4.679l-6.568-9.168l-6.092,3.362c-1.746-1.733-3.649-3.294-5.686-4.67l2.116-6.628l-10.272-4.656l-3.589,5.953
	c-2.35-0.623-4.78-1.025-7.264-1.197l-1.483-6.794l-11.224,1.104l-0.134,6.955c-2.402,0.652-4.707,1.52-6.892,2.587l-4.679-5.141
	l-9.168,6.568l3.362,6.092c-1.733,1.747-3.299,3.649-4.67,5.686l-6.633-2.111l-4.656,10.272l5.953,3.589
	c-0.624,2.346-1.026,4.776-1.197,7.261l-6.794,1.487l1.104,11.224l6.951,0.134c0.652,2.406,1.52,4.712,2.587,6.892l-5.136,4.679
	l6.568,9.168l6.09-3.363c1.746,1.728,3.649,3.294,5.686,4.665l-2.116,6.633l10.272,4.656l3.589-5.953
	c2.346,0.624,4.776,1.026,7.261,1.197l1.483,6.794l11.224-1.104l0.134-6.955c2.402-0.652,4.707-1.52,6.892-2.587l4.679,5.141
	l9.173-6.568l-3.362-6.092c1.732-1.746,3.294-3.649,4.665-5.686l6.633,2.111l4.66-10.272l-5.953-3.589
	C408.973,406.162,409.379,403.732,409.546,401.247z M372.282,413.606c-8.305,0.817-15.694-5.256-16.512-13.557
	c-0.817-8.304,5.256-15.694,13.557-16.512c8.305-0.817,15.694,5.256,16.512,13.557C386.656,405.399,380.583,412.789,372.282,413.606
	z"/>
<path style="fill:#15BDB2;" d="M391.829,396.508c-1.141-11.611-11.478-20.101-23.089-18.96h0.005
	c-11.611,1.145-20.101,11.478-18.96,23.089c1.141,11.611,11.478,20.101,23.089,18.96
	C384.48,418.452,392.969,408.119,391.829,396.508z M372.282,413.602c-8.305,0.817-15.694-5.256-16.512-13.557
	c-0.817-8.305,5.256-15.694,13.557-16.512c8.305-0.817,15.694,5.256,16.512,13.557C386.656,405.395,380.583,412.785,372.282,413.602
	z"/>
<g>
	<path style="fill:#FAD24D;" d="M238.684,436.174h63.803C303.269,454.205,238.056,455.143,238.684,436.174z"/>
	<path style="fill:#FAD24D;" d="M267.122,44.843c75.226,0,136.208,62.321,136.208,139.2c0,107.673-69.287,67.083-69.287,185.079
		c0,7.612-6.078,13.829-13.538,13.829h-99.844c-7.464,0-13.538-6.217-13.538-13.829c0-116.093-76.21-69.651-76.21-185.079
		C130.914,107.165,191.896,44.843,267.122,44.843z"/>
</g>
<path style="fill:#FFFFFF;" d="M223.285,382.951h94.597v39.648c0,7.464-6.106,13.569-13.57,13.569h-67.457
	c-7.464,0-13.569-6.106-13.569-13.569v-39.648H223.285z"/>
<path style="fill:#ECF0F1;" d="M223.285,412.406h94.597v2.809h-94.597L223.285,412.406L223.285,412.406z M223.285,419.422h94.597
	v2.809h-94.597L223.285,419.422L223.285,419.422z"/>
<g>
	<path style="fill:#EDB937;" d="M402.955,197.013c-1.977,15.977-10.337,44.174-42.678,69.932
		c-48.585,38.696-31.135,92.74-36.761,104.37c-5.45,11.27-41.093,11.621-43.314,11.63h40.312c7.459,0,13.538-6.217,13.538-13.829
		c0-112.961,63.494-80.603,68.912-172.105L402.955,197.013L402.955,197.013z"/>
	<path style="fill:#EDB937;" d="M221.687,205.147c3.63,0,6.577,3.779,6.577,6.577c0,2.799-0.859,3.723-2.222,4.928l21.971,63.476
		l0.148,0.429v0.383v102.01h-5.03V281.33l-21.819-63.042c-3.459-0.194-6.198-2.997-6.198-6.568s2.942-6.577,6.577-6.577
		L221.687,205.147z M312.557,205.147c-3.635,0-6.577,3.779-6.577,6.577c0,2.799,0.859,3.723,2.222,4.928l-21.971,63.476
		l-0.148,0.429v0.383v102.01h5.03V281.33l21.823-63.042c3.459-0.194,6.198-2.997,6.198-6.568s-2.942-6.577-6.577-6.577
		L312.557,205.147L312.557,205.147z"/>
</g>
<path style="fill:#FFFFFF;" d="M274.794,196.34l-6.545,9.381l47.763-6.305l-58.543,18.197l2.268-11.025l-29.367,2.443l44.423-12.688
	v-0.003H274.794z"/>
<path style="fill:#ECF0F1;" d="M223.285,393.537h94.597v2.809h-94.597L223.285,393.537L223.285,393.537z M223.285,400.554h94.597
	v2.809h-94.597L223.285,400.554L223.285,400.554z"/>
<g>
</g>
<g>
</g>
<g>
</g>
<g>
</g>
<g>
</g>
<g>
</g>
<g>
</g>
<g>
</g>
<g>
</g>
<g>
</g>
<g>
</g>
<g>
</g>
<g>
</g>
<g>
</g>
<g>
</g>
</svg>
