<?xml version="1.0" standalone="no"?>
<!DOCTYPE svg PUBLIC "-//W3C//DTD SVG 20010904//EN"
 "http://www.w3.org/TR/2001/REC-SVG-20010904/DTD/svg10.dtd">
<svg version="1.0" xmlns="http://www.w3.org/2000/svg"
 width="400.000000pt" height="400.000000pt" viewBox="0 0 400.000000 400.000000"
 preserveAspectRatio="xMidYMid meet">
<metadata>
Created by potrace 1.11, written by Peter Selinger 2001-2013
</metadata>
<g transform="translate(0.000000,400.000000) scale(0.100000,-0.100000)"
fill="#000000" stroke="none">
<path d="M1685 3730 c-22 -4 -58 -11 -80 -15 -58 -10 -151 -43 -219 -77 -219
-109 -368 -299 -416 -528 -54 -260 11 -550 179 -800 16 -25 27 -48 23 -52 -4
-4 -42 -25 -85 -47 -502 -263 -697 -544 -683 -983 4 -147 25 -244 77 -356 149
-322 450 -517 924 -597 56 -9 209 -19 305 -19 316 0 593 76 855 235 l31 18 84
-104 84 -105 413 0 414 0 -123 152 c-68 84 -130 162 -140 173 -27 33 -250 309
-259 320 -4 6 9 37 30 70 182 288 287 649 293 1005 0 36 0 70 -1 75 -1 7 -110
10 -313 10 l-312 0 -2 -55 c-6 -183 -47 -406 -99 -525 -7 -16 -14 -36 -17 -43
-2 -8 -32 22 -69 70 -36 45 -156 195 -267 333 l-200 249 76 44 c280 159 448
347 517 577 29 97 25 368 -6 428 -6 9 -7 17 -5 17 8 0 -45 121 -66 152 -10 14
-18 29 -18 33 0 3 -19 30 -42 59 -97 120 -256 216 -433 262 -83 22 -126 27
-255 29 -85 1 -173 -1 -195 -5z m310 -560 c122 -59 158 -218 85 -366 -40 -83
-137 -169 -287 -258 -8 -4 -34 22 -73 75 -96 129 -118 179 -127 291 -10 124
50 225 160 267 70 27 177 23 242 -9z m-480 -1326 c9 -9 98 -118 197 -242 100
-124 252 -313 339 -421 88 -108 159 -198 159 -201 -1 -18 -225 -93 -325 -108
-64 -10 -310 -9 -360 2 -268 58 -386 185 -394 426 -5 160 48 301 153 406 53
53 187 152 208 154 4 0 14 -7 23 -16z"/>
</g>
</svg>
